<?xml version="1.0" standalone="yes"?><svg xmlns="http://www.w3.org/2000/svg" version="1.1" width="287" height="287" viewBox="0 0 287 287" shape-rendering="crispEdges"><rect x="0" y="0" width="287" height="287" fill="#ece8df"/><path fill="#14110d" d="M28 28h7v7H28V28M35 28h7v7H35V28M42 28h7v7H42V28M49 28h7v7H49V28M56 28h7v7H56V28M63 28h7v7H63V28M70 28h7v7H70V28M84 28h7v7H84V28M91 28h7v7H91V28M112 28h7v7H112V28M119 28h7v7H119V28M126 28h7v7H126V28M147 28h7v7H147V28M154 28h7v7H154V28M175 28h7v7H175V28M182 28h7v7H182V28M210 28h7v7H210V28M217 28h7v7H217V28M224 28h7v7H224V28M231 28h7v7H231V28M238 28h7v7H238V28M245 28h7v7H245V28M252 28h7v7H252V28M28 35h7v7H28V35M70 35h7v7H70V35M84 35h7v7H84V35M91 35h7v7H91V35M98 35h7v7H98V35M105 35h7v7H105V35M119 35h7v7H119V35M126 35h7v7H126V35M154 35h7v7H154V35M161 35h7v7H161V35M168 35h7v7H168V35M210 35h7v7H210V35M252 35h7v7H252V35M28 42h7v7H28V42M42 42h7v7H42V42M49 42h7v7H49V42M56 42h7v7H56V42M70 42h7v7H70V42M84 42h7v7H84V42M105 42h7v7H105V42M112 42h7v7H112V42M119 42h7v7H119V42M126 42h7v7H126V42M140 42h7v7H140V42M161 42h7v7H161V42M168 42h7v7H168V42M175 42h7v7H175V42M189 42h7v7H189V42M210 42h7v7H210V42M224 42h7v7H224V42M231 42h7v7H231V42M238 42h7v7H238V42M252 42h7v7H252V42M28 49h7v7H28V49M42 49h7v7H42V49M49 49h7v7H49V49M56 49h7v7H56V49M70 49h7v7H70V49M126 49h7v7H126V49M140 49h7v7H140V49M154 49h7v7H154V49M168 49h7v7H168V49M182 49h7v7H182V49M196 49h7v7H196V49M210 49h7v7H210V49M224 49h7v7H224V49M231 49h7v7H231V49M238 49h7v7H238V49M252 49h7v7H252V49M28 56h7v7H28V56M42 56h7v7H42V56M49 56h7v7H49V56M56 56h7v7H56V56M70 56h7v7H70V56M84 56h7v7H84V56M91 56h7v7H91V56M105 56h7v7H105V56M133 56h7v7H133V56M140 56h7v7H140V56M175 56h7v7H175V56M182 56h7v7H182V56M189 56h7v7H189V56M210 56h7v7H210V56M224 56h7v7H224V56M231 56h7v7H231V56M238 56h7v7H238V56M252 56h7v7H252V56M28 63h7v7H28V63M70 63h7v7H70V63M91 63h7v7H91V63M98 63h7v7H98V63M112 63h7v7H112V63M126 63h7v7H126V63M133 63h7v7H133V63M140 63h7v7H140V63M147 63h7v7H147V63M154 63h7v7H154V63M161 63h7v7H161V63M182 63h7v7H182V63M196 63h7v7H196V63M210 63h7v7H210V63M252 63h7v7H252V63M28 70h7v7H28V70M35 70h7v7H35V70M42 70h7v7H42V70M49 70h7v7H49V70M56 70h7v7H56V70M63 70h7v7H63V70M70 70h7v7H70V70M84 70h7v7H84V70M98 70h7v7H98V70M112 70h7v7H112V70M126 70h7v7H126V70M140 70h7v7H140V70M154 70h7v7H154V70M168 70h7v7H168V70M182 70h7v7H182V70M196 70h7v7H196V70M210 70h7v7H210V70M217 70h7v7H217V70M224 70h7v7H224V70M231 70h7v7H231V70M238 70h7v7H238V70M245 70h7v7H245V70M252 70h7v7H252V70M91 77h7v7H91V77M105 77h7v7H105V77M119 77h7v7H119V77M133 77h7v7H133V77M140 77h7v7H140V77M154 77h7v7H154V77M182 77h7v7H182V77M189 77h7v7H189V77M28 84h7v7H28V84M49 84h7v7H49V84M56 84h7v7H56V84M63 84h7v7H63V84M70 84h7v7H70V84M77 84h7v7H77V84M84 84h7v7H84V84M105 84h7v7H105V84M112 84h7v7H112V84M126 84h7v7H126V84M147 84h7v7H147V84M168 84h7v7H168V84M189 84h7v7H189V84M196 84h7v7H196V84M203 84h7v7H203V84M224 84h7v7H224V84M238 84h7v7H238V84M245 84h7v7H245V84M252 84h7v7H252V84M56 91h7v7H56V91M63 91h7v7H63V91M77 91h7v7H77V91M84 91h7v7H84V91M91 91h7v7H91V91M119 91h7v7H119V91M126 91h7v7H126V91M133 91h7v7H133V91M147 91h7v7H147V91M161 91h7v7H161V91M175 91h7v7H175V91M189 91h7v7H189V91M224 91h7v7H224V91M231 91h7v7H231V91M238 91h7v7H238V91M56 98h7v7H56V98M70 98h7v7H70V98M119 98h7v7H119V98M133 98h7v7H133V98M140 98h7v7H140V98M182 98h7v7H182V98M189 98h7v7H189V98M203 98h7v7H203V98M210 98h7v7H210V98M224 98h7v7H224V98M231 98h7v7H231V98M238 98h7v7H238V98M245 98h7v7H245V98M252 98h7v7H252V98M35 105h7v7H35V105M42 105h7v7H42V105M56 105h7v7H56V105M63 105h7v7H63V105M84 105h7v7H84V105M119 105h7v7H119V105M133 105h7v7H133V105M154 105h7v7H154V105M175 105h7v7H175V105M182 105h7v7H182V105M189 105h7v7H189V105M196 105h7v7H196V105M217 105h7v7H217V105M238 105h7v7H238V105M245 105h7v7H245V105M252 105h7v7H252V105M28 112h7v7H28V112M35 112h7v7H35V112M42 112h7v7H42V112M63 112h7v7H63V112M70 112h7v7H70V112M119 112h7v7H119V112M147 112h7v7H147V112M175 112h7v7H175V112M196 112h7v7H196V112M210 112h7v7H210V112M245 112h7v7H245V112M252 112h7v7H252V112M28 119h7v7H28V119M35 119h7v7H35V119M49 119h7v7H49V119M105 119h7v7H105V119M112 119h7v7H112V119M119 119h7v7H119V119M126 119h7v7H126V119M154 119h7v7H154V119M161 119h7v7H161V119M168 119h7v7H168V119M196 119h7v7H196V119M217 119h7v7H217V119M28 126h7v7H28V126M63 126h7v7H63V126M70 126h7v7H70V126M77 126h7v7H77V126M91 126h7v7H91V126M98 126h7v7H98V126M133 126h7v7H133V126M161 126h7v7H161V126M168 126h7v7H168V126M175 126h7v7H175V126M196 126h7v7H196V126M210 126h7v7H210V126M224 126h7v7H224V126M231 126h7v7H231V126M238 126h7v7H238V126M28 133h7v7H28V133M49 133h7v7H49V133M56 133h7v7H56V133M63 133h7v7H63V133M77 133h7v7H77V133M84 133h7v7H84V133M105 133h7v7H105V133M112 133h7v7H112V133M140 133h7v7H140V133M168 133h7v7H168V133M196 133h7v7H196V133M203 133h7v7H203V133M231 133h7v7H231V133M238 133h7v7H238V133M252 133h7v7H252V133M35 140h7v7H35V140M49 140h7v7H49V140M63 140h7v7H63V140M70 140h7v7H70V140M84 140h7v7H84V140M112 140h7v7H112V140M119 140h7v7H119V140M133 140h7v7H133V140M168 140h7v7H168V140M182 140h7v7H182V140M203 140h7v7H203V140M210 140h7v7H210V140M217 140h7v7H217V140M224 140h7v7H224V140M231 140h7v7H231V140M28 147h7v7H28V147M35 147h7v7H35V147M42 147h7v7H42V147M56 147h7v7H56V147M77 147h7v7H77V147M84 147h7v7H84V147M91 147h7v7H91V147M98 147h7v7H98V147M133 147h7v7H133V147M140 147h7v7H140V147M147 147h7v7H147V147M154 147h7v7H154V147M161 147h7v7H161V147M168 147h7v7H168V147M182 147h7v7H182V147M210 147h7v7H210V147M224 147h7v7H224V147M238 147h7v7H238V147M252 147h7v7H252V147M28 154h7v7H28V154M35 154h7v7H35V154M49 154h7v7H49V154M63 154h7v7H63V154M70 154h7v7H70V154M98 154h7v7H98V154M112 154h7v7H112V154M119 154h7v7H119V154M133 154h7v7H133V154M147 154h7v7H147V154M154 154h7v7H154V154M161 154h7v7H161V154M175 154h7v7H175V154M182 154h7v7H182V154M189 154h7v7H189V154M196 154h7v7H196V154M203 154h7v7H203V154M217 154h7v7H217V154M231 154h7v7H231V154M238 154h7v7H238V154M252 154h7v7H252V154M56 161h7v7H56V161M63 161h7v7H63V161M77 161h7v7H77V161M84 161h7v7H84V161M98 161h7v7H98V161M119 161h7v7H119V161M133 161h7v7H133V161M140 161h7v7H140V161M182 161h7v7H182V161M210 161h7v7H210V161M224 161h7v7H224V161M231 161h7v7H231V161M238 161h7v7H238V161M252 161h7v7H252V161M28 168h7v7H28V168M35 168h7v7H35V168M63 168h7v7H63V168M70 168h7v7H70V168M77 168h7v7H77V168M91 168h7v7H91V168M98 168h7v7H98V168M112 168h7v7H112V168M140 168h7v7H140V168M154 168h7v7H154V168M161 168h7v7H161V168M175 168h7v7H175V168M182 168h7v7H182V168M203 168h7v7H203V168M217 168h7v7H217V168M231 168h7v7H231V168M28 175h7v7H28V175M63 175h7v7H63V175M77 175h7v7H77V175M84 175h7v7H84V175M91 175h7v7H91V175M98 175h7v7H98V175M119 175h7v7H119V175M189 175h7v7H189V175M196 175h7v7H196V175M217 175h7v7H217V175M224 175h7v7H224V175M238 175h7v7H238V175M28 182h7v7H28V182M42 182h7v7H42V182M63 182h7v7H63V182M70 182h7v7H70V182M91 182h7v7H91V182M119 182h7v7H119V182M126 182h7v7H126V182M154 182h7v7H154V182M161 182h7v7H161V182M168 182h7v7H168V182M182 182h7v7H182V182M189 182h7v7H189V182M210 182h7v7H210V182M217 182h7v7H217V182M231 182h7v7H231V182M245 182h7v7H245V182M252 182h7v7H252V182M28 189h7v7H28V189M63 189h7v7H63V189M84 189h7v7H84V189M98 189h7v7H98V189M112 189h7v7H112V189M119 189h7v7H119V189M126 189h7v7H126V189M133 189h7v7H133V189M147 189h7v7H147V189M154 189h7v7H154V189M161 189h7v7H161V189M168 189h7v7H168V189M189 189h7v7H189V189M196 189h7v7H196V189M203 189h7v7H203V189M217 189h7v7H217V189M238 189h7v7H238V189M245 189h7v7H245V189M252 189h7v7H252V189M28 196h7v7H28V196M35 196h7v7H35V196M49 196h7v7H49V196M56 196h7v7H56V196M70 196h7v7H70V196M77 196h7v7H77V196M98 196h7v7H98V196M112 196h7v7H112V196M119 196h7v7H119V196M140 196h7v7H140V196M154 196h7v7H154V196M168 196h7v7H168V196M189 196h7v7H189V196M196 196h7v7H196V196M203 196h7v7H203V196M210 196h7v7H210V196M217 196h7v7H217V196M224 196h7v7H224V196M231 196h7v7H231V196M245 196h7v7H245V196M84 203h7v7H84V203M91 203h7v7H91V203M105 203h7v7H105V203M133 203h7v7H133V203M140 203h7v7H140V203M147 203h7v7H147V203M154 203h7v7H154V203M175 203h7v7H175V203M196 203h7v7H196V203M224 203h7v7H224V203M238 203h7v7H238V203M28 210h7v7H28V210M35 210h7v7H35V210M42 210h7v7H42V210M49 210h7v7H49V210M56 210h7v7H56V210M63 210h7v7H63V210M70 210h7v7H70V210M84 210h7v7H84V210M98 210h7v7H98V210M112 210h7v7H112V210M119 210h7v7H119V210M133 210h7v7H133V210M147 210h7v7H147V210M161 210h7v7H161V210M189 210h7v7H189V210M196 210h7v7H196V210M210 210h7v7H210V210M224 210h7v7H224V210M238 210h7v7H238V210M28 217h7v7H28V217M70 217h7v7H70V217M84 217h7v7H84V217M91 217h7v7H91V217M98 217h7v7H98V217M105 217h7v7H105V217M112 217h7v7H112V217M140 217h7v7H140V217M147 217h7v7H147V217M154 217h7v7H154V217M161 217h7v7H161V217M175 217h7v7H175V217M182 217h7v7H182V217M189 217h7v7H189V217M196 217h7v7H196V217M224 217h7v7H224V217M231 217h7v7H231V217M238 217h7v7H238V217M252 217h7v7H252V217M28 224h7v7H28V224M42 224h7v7H42V224M49 224h7v7H49V224M56 224h7v7H56V224M70 224h7v7H70V224M84 224h7v7H84V224M98 224h7v7H98V224M105 224h7v7H105V224M119 224h7v7H119V224M140 224h7v7H140V224M147 224h7v7H147V224M161 224h7v7H161V224M175 224h7v7H175V224M182 224h7v7H182V224M189 224h7v7H189V224M196 224h7v7H196V224M203 224h7v7H203V224M210 224h7v7H210V224M217 224h7v7H217V224M224 224h7v7H224V224M245 224h7v7H245V224M252 224h7v7H252V224M28 231h7v7H28V231M42 231h7v7H42V231M49 231h7v7H49V231M56 231h7v7H56V231M70 231h7v7H70V231M84 231h7v7H84V231M91 231h7v7H91V231M98 231h7v7H98V231M112 231h7v7H112V231M140 231h7v7H140V231M154 231h7v7H154V231M182 231h7v7H182V231M189 231h7v7H189V231M203 231h7v7H203V231M217 231h7v7H217V231M231 231h7v7H231V231M252 231h7v7H252V231M28 238h7v7H28V238M42 238h7v7H42V238M49 238h7v7H49V238M56 238h7v7H56V238M70 238h7v7H70V238M98 238h7v7H98V238M112 238h7v7H112V238M126 238h7v7H126V238M133 238h7v7H133V238M161 238h7v7H161V238M175 238h7v7H175V238M203 238h7v7H203V238M217 238h7v7H217V238M224 238h7v7H224V238M238 238h7v7H238V238M245 238h7v7H245V238M252 238h7v7H252V238M28 245h7v7H28V245M70 245h7v7H70V245M91 245h7v7H91V245M98 245h7v7H98V245M105 245h7v7H105V245M119 245h7v7H119V245M126 245h7v7H126V245M154 245h7v7H154V245M161 245h7v7H161V245M168 245h7v7H168V245M182 245h7v7H182V245M189 245h7v7H189V245M217 245h7v7H217V245M224 245h7v7H224V245M231 245h7v7H231V245M238 245h7v7H238V245M245 245h7v7H245V245M252 245h7v7H252V245M28 252h7v7H28V252M35 252h7v7H35V252M42 252h7v7H42V252M49 252h7v7H49V252M56 252h7v7H56V252M63 252h7v7H63V252M70 252h7v7H70V252M84 252h7v7H84V252M98 252h7v7H98V252M105 252h7v7H105V252M133 252h7v7H133V252M140 252h7v7H140V252M147 252h7v7H147V252M161 252h7v7H161V252M182 252h7v7H182V252M196 252h7v7H196V252M210 252h7v7H210V252M217 252h7v7H217V252M224 252h7v7H224V252"/></svg>