<?xml version="1.0" standalone="yes"?><svg xmlns="http://www.w3.org/2000/svg" version="1.1" width="287" height="287" viewBox="0 0 287 287" shape-rendering="crispEdges"><rect x="0" y="0" width="287" height="287" fill="#ece8df"/><path fill="#14110d" d="M28 28h7v7H28V28M35 28h7v7H35V28M42 28h7v7H42V28M49 28h7v7H49V28M56 28h7v7H56V28M63 28h7v7H63V28M70 28h7v7H70V28M91 28h7v7H91V28M98 28h7v7H98V28M105 28h7v7H105V28M112 28h7v7H112V28M140 28h7v7H140V28M154 28h7v7H154V28M161 28h7v7H161V28M168 28h7v7H168V28M175 28h7v7H175V28M189 28h7v7H189V28M210 28h7v7H210V28M217 28h7v7H217V28M224 28h7v7H224V28M231 28h7v7H231V28M238 28h7v7H238V28M245 28h7v7H245V28M252 28h7v7H252V28M28 35h7v7H28V35M70 35h7v7H70V35M105 35h7v7H105V35M133 35h7v7H133V35M154 35h7v7H154V35M175 35h7v7H175V35M210 35h7v7H210V35M252 35h7v7H252V35M28 42h7v7H28V42M42 42h7v7H42V42M49 42h7v7H49V42M56 42h7v7H56V42M70 42h7v7H70V42M84 42h7v7H84V42M105 42h7v7H105V42M112 42h7v7H112V42M126 42h7v7H126V42M168 42h7v7H168V42M175 42h7v7H175V42M182 42h7v7H182V42M189 42h7v7H189V42M210 42h7v7H210V42M224 42h7v7H224V42M231 42h7v7H231V42M238 42h7v7H238V42M252 42h7v7H252V42M28 49h7v7H28V49M42 49h7v7H42V49M49 49h7v7H49V49M56 49h7v7H56V49M70 49h7v7H70V49M84 49h7v7H84V49M133 49h7v7H133V49M154 49h7v7H154V49M175 49h7v7H175V49M196 49h7v7H196V49M210 49h7v7H210V49M224 49h7v7H224V49M231 49h7v7H231V49M238 49h7v7H238V49M252 49h7v7H252V49M28 56h7v7H28V56M42 56h7v7H42V56M49 56h7v7H49V56M56 56h7v7H56V56M70 56h7v7H70V56M84 56h7v7H84V56M91 56h7v7H91V56M98 56h7v7H98V56M112 56h7v7H112V56M126 56h7v7H126V56M133 56h7v7H133V56M140 56h7v7H140V56M147 56h7v7H147V56M168 56h7v7H168V56M175 56h7v7H175V56M182 56h7v7H182V56M210 56h7v7H210V56M224 56h7v7H224V56M231 56h7v7H231V56M238 56h7v7H238V56M252 56h7v7H252V56M28 63h7v7H28V63M70 63h7v7H70V63M84 63h7v7H84V63M112 63h7v7H112V63M126 63h7v7H126V63M154 63h7v7H154V63M161 63h7v7H161V63M175 63h7v7H175V63M189 63h7v7H189V63M196 63h7v7H196V63M210 63h7v7H210V63M252 63h7v7H252V63M28 70h7v7H28V70M35 70h7v7H35V70M42 70h7v7H42V70M49 70h7v7H49V70M56 70h7v7H56V70M63 70h7v7H63V70M70 70h7v7H70V70M84 70h7v7H84V70M98 70h7v7H98V70M112 70h7v7H112V70M126 70h7v7H126V70M140 70h7v7H140V70M154 70h7v7H154V70M168 70h7v7H168V70M182 70h7v7H182V70M196 70h7v7H196V70M210 70h7v7H210V70M217 70h7v7H217V70M224 70h7v7H224V70M231 70h7v7H231V70M238 70h7v7H238V70M245 70h7v7H245V70M252 70h7v7H252V70M84 77h7v7H84V77M105 77h7v7H105V77M112 77h7v7H112V77M126 77h7v7H126V77M140 77h7v7H140V77M154 77h7v7H154V77M161 77h7v7H161V77M168 77h7v7H168V77M175 77h7v7H175V77M182 77h7v7H182V77M189 77h7v7H189V77M28 84h7v7H28V84M42 84h7v7H42V84M49 84h7v7H49V84M56 84h7v7H56V84M63 84h7v7H63V84M70 84h7v7H70V84M98 84h7v7H98V84M105 84h7v7H105V84M112 84h7v7H112V84M119 84h7v7H119V84M126 84h7v7H126V84M140 84h7v7H140V84M147 84h7v7H147V84M161 84h7v7H161V84M168 84h7v7H168V84M182 84h7v7H182V84M189 84h7v7H189V84M196 84h7v7H196V84M210 84h7v7H210V84M217 84h7v7H217V84M224 84h7v7H224V84M231 84h7v7H231V84M238 84h7v7H238V84M42 91h7v7H42V91M49 91h7v7H49V91M56 91h7v7H56V91M63 91h7v7H63V91M77 91h7v7H77V91M98 91h7v7H98V91M119 91h7v7H119V91M140 91h7v7H140V91M147 91h7v7H147V91M161 91h7v7H161V91M168 91h7v7H168V91M182 91h7v7H182V91M189 91h7v7H189V91M210 91h7v7H210V91M217 91h7v7H217V91M231 91h7v7H231V91M238 91h7v7H238V91M252 91h7v7H252V91M28 98h7v7H28V98M35 98h7v7H35V98M42 98h7v7H42V98M56 98h7v7H56V98M70 98h7v7H70V98M84 98h7v7H84V98M105 98h7v7H105V98M119 98h7v7H119V98M126 98h7v7H126V98M133 98h7v7H133V98M140 98h7v7H140V98M147 98h7v7H147V98M168 98h7v7H168V98M182 98h7v7H182V98M203 98h7v7H203V98M224 98h7v7H224V98M238 98h7v7H238V98M245 98h7v7H245V98M28 105h7v7H28V105M35 105h7v7H35V105M42 105h7v7H42V105M49 105h7v7H49V105M84 105h7v7H84V105M98 105h7v7H98V105M105 105h7v7H105V105M119 105h7v7H119V105M140 105h7v7H140V105M147 105h7v7H147V105M154 105h7v7H154V105M196 105h7v7H196V105M224 105h7v7H224V105M231 105h7v7H231V105M238 105h7v7H238V105M245 105h7v7H245V105M252 105h7v7H252V105M49 112h7v7H49V112M63 112h7v7H63V112M70 112h7v7H70V112M77 112h7v7H77V112M84 112h7v7H84V112M91 112h7v7H91V112M105 112h7v7H105V112M126 112h7v7H126V112M140 112h7v7H140V112M161 112h7v7H161V112M168 112h7v7H168V112M175 112h7v7H175V112M182 112h7v7H182V112M189 112h7v7H189V112M196 112h7v7H196V112M203 112h7v7H203V112M224 112h7v7H224V112M231 112h7v7H231V112M28 119h7v7H28V119M49 119h7v7H49V119M84 119h7v7H84V119M91 119h7v7H91V119M98 119h7v7H98V119M105 119h7v7H105V119M112 119h7v7H112V119M133 119h7v7H133V119M154 119h7v7H154V119M175 119h7v7H175V119M196 119h7v7H196V119M203 119h7v7H203V119M210 119h7v7H210V119M245 119h7v7H245V119M252 119h7v7H252V119M28 126h7v7H28V126M35 126h7v7H35V126M56 126h7v7H56V126M63 126h7v7H63V126M70 126h7v7H70V126M77 126h7v7H77V126M91 126h7v7H91V126M105 126h7v7H105V126M119 126h7v7H119V126M133 126h7v7H133V126M140 126h7v7H140V126M168 126h7v7H168V126M175 126h7v7H175V126M182 126h7v7H182V126M196 126h7v7H196V126M203 126h7v7H203V126M210 126h7v7H210V126M231 126h7v7H231V126M238 126h7v7H238V126M245 126h7v7H245V126M28 133h7v7H28V133M42 133h7v7H42V133M49 133h7v7H49V133M63 133h7v7H63V133M77 133h7v7H77V133M84 133h7v7H84V133M91 133h7v7H91V133M98 133h7v7H98V133M105 133h7v7H105V133M126 133h7v7H126V133M133 133h7v7H133V133M175 133h7v7H175V133M182 133h7v7H182V133M189 133h7v7H189V133M196 133h7v7H196V133M203 133h7v7H203V133M210 133h7v7H210V133M217 133h7v7H217V133M224 133h7v7H224V133M231 133h7v7H231V133M238 133h7v7H238V133M35 140h7v7H35V140M42 140h7v7H42V140M49 140h7v7H49V140M70 140h7v7H70V140M105 140h7v7H105V140M112 140h7v7H112V140M119 140h7v7H119V140M126 140h7v7H126V140M133 140h7v7H133V140M147 140h7v7H147V140M182 140h7v7H182V140M203 140h7v7H203V140M217 140h7v7H217V140M224 140h7v7H224V140M252 140h7v7H252V140M35 147h7v7H35V147M42 147h7v7H42V147M49 147h7v7H49V147M63 147h7v7H63V147M77 147h7v7H77V147M84 147h7v7H84V147M105 147h7v7H105V147M154 147h7v7H154V147M161 147h7v7H161V147M168 147h7v7H168V147M175 147h7v7H175V147M189 147h7v7H189V147M210 147h7v7H210V147M217 147h7v7H217V147M231 147h7v7H231V147M238 147h7v7H238V147M252 147h7v7H252V147M28 154h7v7H28V154M42 154h7v7H42V154M49 154h7v7H49V154M63 154h7v7H63V154M70 154h7v7H70V154M77 154h7v7H77V154M84 154h7v7H84V154M105 154h7v7H105V154M112 154h7v7H112V154M133 154h7v7H133V154M140 154h7v7H140V154M154 154h7v7H154V154M168 154h7v7H168V154M175 154h7v7H175V154M196 154h7v7H196V154M210 154h7v7H210V154M217 154h7v7H217V154M224 154h7v7H224V154M238 154h7v7H238V154M245 154h7v7H245V154M28 161h7v7H28V161M35 161h7v7H35V161M42 161h7v7H42V161M49 161h7v7H49V161M56 161h7v7H56V161M63 161h7v7H63V161M91 161h7v7H91V161M140 161h7v7H140V161M161 161h7v7H161V161M168 161h7v7H168V161M175 161h7v7H175V161M182 161h7v7H182V161M203 161h7v7H203V161M217 161h7v7H217V161M224 161h7v7H224V161M231 161h7v7H231V161M238 161h7v7H238V161M245 161h7v7H245V161M49 168h7v7H49V168M70 168h7v7H70V168M84 168h7v7H84V168M98 168h7v7H98V168M112 168h7v7H112V168M126 168h7v7H126V168M154 168h7v7H154V168M175 168h7v7H175V168M217 168h7v7H217V168M224 168h7v7H224V168M231 168h7v7H231V168M245 168h7v7H245V168M28 175h7v7H28V175M42 175h7v7H42V175M56 175h7v7H56V175M63 175h7v7H63V175M98 175h7v7H98V175M112 175h7v7H112V175M119 175h7v7H119V175M126 175h7v7H126V175M133 175h7v7H133V175M140 175h7v7H140V175M168 175h7v7H168V175M175 175h7v7H175V175M182 175h7v7H182V175M189 175h7v7H189V175M196 175h7v7H196V175M210 175h7v7H210V175M238 175h7v7H238V175M252 175h7v7H252V175M28 182h7v7H28V182M49 182h7v7H49V182M70 182h7v7H70V182M77 182h7v7H77V182M91 182h7v7H91V182M105 182h7v7H105V182M112 182h7v7H112V182M119 182h7v7H119V182M147 182h7v7H147V182M154 182h7v7H154V182M161 182h7v7H161V182M182 182h7v7H182V182M217 182h7v7H217V182M245 182h7v7H245V182M28 189h7v7H28V189M42 189h7v7H42V189M56 189h7v7H56V189M84 189h7v7H84V189M91 189h7v7H91V189M119 189h7v7H119V189M126 189h7v7H126V189M140 189h7v7H140V189M154 189h7v7H154V189M161 189h7v7H161V189M168 189h7v7H168V189M175 189h7v7H175V189M182 189h7v7H182V189M189 189h7v7H189V189M196 189h7v7H196V189M203 189h7v7H203V189M224 189h7v7H224V189M231 189h7v7H231V189M238 189h7v7H238V189M245 189h7v7H245V189M252 189h7v7H252V189M28 196h7v7H28V196M42 196h7v7H42V196M49 196h7v7H49V196M63 196h7v7H63V196M70 196h7v7H70V196M84 196h7v7H84V196M112 196h7v7H112V196M126 196h7v7H126V196M147 196h7v7H147V196M154 196h7v7H154V196M161 196h7v7H161V196M182 196h7v7H182V196M196 196h7v7H196V196M203 196h7v7H203V196M210 196h7v7H210V196M217 196h7v7H217V196M224 196h7v7H224V196M252 196h7v7H252V196M84 203h7v7H84V203M91 203h7v7H91V203M105 203h7v7H105V203M126 203h7v7H126V203M140 203h7v7H140V203M147 203h7v7H147V203M154 203h7v7H154V203M161 203h7v7H161V203M168 203h7v7H168V203M196 203h7v7H196V203M224 203h7v7H224V203M238 203h7v7H238V203M245 203h7v7H245V203M252 203h7v7H252V203M28 210h7v7H28V210M35 210h7v7H35V210M42 210h7v7H42V210M49 210h7v7H49V210M56 210h7v7H56V210M63 210h7v7H63V210M70 210h7v7H70V210M98 210h7v7H98V210M112 210h7v7H112V210M119 210h7v7H119V210M126 210h7v7H126V210M133 210h7v7H133V210M140 210h7v7H140V210M147 210h7v7H147V210M182 210h7v7H182V210M189 210h7v7H189V210M196 210h7v7H196V210M210 210h7v7H210V210M224 210h7v7H224V210M238 210h7v7H238V210M245 210h7v7H245V210M28 217h7v7H28V217M70 217h7v7H70V217M84 217h7v7H84V217M91 217h7v7H91V217M105 217h7v7H105V217M112 217h7v7H112V217M133 217h7v7H133V217M147 217h7v7H147V217M154 217h7v7H154V217M161 217h7v7H161V217M168 217h7v7H168V217M189 217h7v7H189V217M196 217h7v7H196V217M224 217h7v7H224V217M231 217h7v7H231V217M238 217h7v7H238V217M28 224h7v7H28V224M42 224h7v7H42V224M49 224h7v7H49V224M56 224h7v7H56V224M70 224h7v7H70V224M84 224h7v7H84V224M91 224h7v7H91V224M98 224h7v7H98V224M112 224h7v7H112V224M140 224h7v7H140V224M161 224h7v7H161V224M168 224h7v7H168V224M175 224h7v7H175V224M182 224h7v7H182V224M196 224h7v7H196V224M203 224h7v7H203V224M210 224h7v7H210V224M217 224h7v7H217V224M224 224h7v7H224V224M231 224h7v7H231V224M245 224h7v7H245V224M28 231h7v7H28V231M42 231h7v7H42V231M49 231h7v7H49V231M56 231h7v7H56V231M70 231h7v7H70V231M84 231h7v7H84V231M126 231h7v7H126V231M133 231h7v7H133V231M147 231h7v7H147V231M154 231h7v7H154V231M175 231h7v7H175V231M203 231h7v7H203V231M224 231h7v7H224V231M252 231h7v7H252V231M28 238h7v7H28V238M42 238h7v7H42V238M49 238h7v7H49V238M56 238h7v7H56V238M70 238h7v7H70V238M84 238h7v7H84V238M105 238h7v7H105V238M119 238h7v7H119V238M133 238h7v7H133V238M140 238h7v7H140V238M147 238h7v7H147V238M168 238h7v7H168V238M175 238h7v7H175V238M182 238h7v7H182V238M189 238h7v7H189V238M210 238h7v7H210V238M217 238h7v7H217V238M231 238h7v7H231V238M238 238h7v7H238V238M28 245h7v7H28V245M70 245h7v7H70V245M98 245h7v7H98V245M112 245h7v7H112V245M133 245h7v7H133V245M154 245h7v7H154V245M175 245h7v7H175V245M182 245h7v7H182V245M189 245h7v7H189V245M203 245h7v7H203V245M210 245h7v7H210V245M224 245h7v7H224V245M231 245h7v7H231V245M238 245h7v7H238V245M28 252h7v7H28V252M35 252h7v7H35V252M42 252h7v7H42V252M49 252h7v7H49V252M56 252h7v7H56V252M63 252h7v7H63V252M70 252h7v7H70V252M84 252h7v7H84V252M105 252h7v7H105V252M119 252h7v7H119V252M133 252h7v7H133V252M147 252h7v7H147V252M196 252h7v7H196V252M203 252h7v7H203V252M210 252h7v7H210V252M217 252h7v7H217V252M245 252h7v7H245V252"/></svg>