<?xml version="1.0" standalone="yes"?><svg xmlns="http://www.w3.org/2000/svg" version="1.1" width="287" height="287" viewBox="0 0 287 287" shape-rendering="crispEdges"><rect x="0" y="0" width="287" height="287" fill="#ece8df"/><path fill="#14110d" d="M28 28h7v7H28V28M35 28h7v7H35V28M42 28h7v7H42V28M49 28h7v7H49V28M56 28h7v7H56V28M63 28h7v7H63V28M70 28h7v7H70V28M84 28h7v7H84V28M98 28h7v7H98V28M105 28h7v7H105V28M112 28h7v7H112V28M140 28h7v7H140V28M154 28h7v7H154V28M161 28h7v7H161V28M168 28h7v7H168V28M175 28h7v7H175V28M189 28h7v7H189V28M210 28h7v7H210V28M217 28h7v7H217V28M224 28h7v7H224V28M231 28h7v7H231V28M238 28h7v7H238V28M245 28h7v7H245V28M252 28h7v7H252V28M28 35h7v7H28V35M70 35h7v7H70V35M84 35h7v7H84V35M91 35h7v7H91V35M112 35h7v7H112V35M126 35h7v7H126V35M147 35h7v7H147V35M168 35h7v7H168V35M189 35h7v7H189V35M196 35h7v7H196V35M210 35h7v7H210V35M252 35h7v7H252V35M28 42h7v7H28V42M42 42h7v7H42V42M49 42h7v7H49V42M56 42h7v7H56V42M70 42h7v7H70V42M91 42h7v7H91V42M105 42h7v7H105V42M119 42h7v7H119V42M126 42h7v7H126V42M133 42h7v7H133V42M140 42h7v7H140V42M154 42h7v7H154V42M161 42h7v7H161V42M168 42h7v7H168V42M189 42h7v7H189V42M196 42h7v7H196V42M210 42h7v7H210V42M224 42h7v7H224V42M231 42h7v7H231V42M238 42h7v7H238V42M252 42h7v7H252V42M28 49h7v7H28V49M42 49h7v7H42V49M49 49h7v7H49V49M56 49h7v7H56V49M70 49h7v7H70V49M84 49h7v7H84V49M98 49h7v7H98V49M112 49h7v7H112V49M133 49h7v7H133V49M154 49h7v7H154V49M175 49h7v7H175V49M196 49h7v7H196V49M210 49h7v7H210V49M224 49h7v7H224V49M231 49h7v7H231V49M238 49h7v7H238V49M252 49h7v7H252V49M28 56h7v7H28V56M42 56h7v7H42V56M49 56h7v7H49V56M56 56h7v7H56V56M70 56h7v7H70V56M98 56h7v7H98V56M105 56h7v7H105V56M140 56h7v7H140V56M154 56h7v7H154V56M182 56h7v7H182V56M189 56h7v7H189V56M196 56h7v7H196V56M210 56h7v7H210V56M224 56h7v7H224V56M231 56h7v7H231V56M238 56h7v7H238V56M252 56h7v7H252V56M28 63h7v7H28V63M70 63h7v7H70V63M91 63h7v7H91V63M98 63h7v7H98V63M119 63h7v7H119V63M126 63h7v7H126V63M133 63h7v7H133V63M140 63h7v7H140V63M182 63h7v7H182V63M189 63h7v7H189V63M210 63h7v7H210V63M252 63h7v7H252V63M28 70h7v7H28V70M35 70h7v7H35V70M42 70h7v7H42V70M49 70h7v7H49V70M56 70h7v7H56V70M63 70h7v7H63V70M70 70h7v7H70V70M84 70h7v7H84V70M98 70h7v7H98V70M112 70h7v7H112V70M126 70h7v7H126V70M140 70h7v7H140V70M154 70h7v7H154V70M168 70h7v7H168V70M182 70h7v7H182V70M196 70h7v7H196V70M210 70h7v7H210V70M217 70h7v7H217V70M224 70h7v7H224V70M231 70h7v7H231V70M238 70h7v7H238V70M245 70h7v7H245V70M252 70h7v7H252V70M84 77h7v7H84V77M91 77h7v7H91V77M105 77h7v7H105V77M133 77h7v7H133V77M140 77h7v7H140V77M147 77h7v7H147V77M161 77h7v7H161V77M182 77h7v7H182V77M196 77h7v7H196V77M28 84h7v7H28V84M42 84h7v7H42V84M49 84h7v7H49V84M63 84h7v7H63V84M70 84h7v7H70V84M77 84h7v7H77V84M91 84h7v7H91V84M105 84h7v7H105V84M126 84h7v7H126V84M133 84h7v7H133V84M147 84h7v7H147V84M154 84h7v7H154V84M168 84h7v7H168V84M175 84h7v7H175V84M189 84h7v7H189V84M210 84h7v7H210V84M231 84h7v7H231V84M245 84h7v7H245V84M252 84h7v7H252V84M28 91h7v7H28V91M42 91h7v7H42V91M49 91h7v7H49V91M63 91h7v7H63V91M77 91h7v7H77V91M91 91h7v7H91V91M98 91h7v7H98V91M119 91h7v7H119V91M140 91h7v7H140V91M147 91h7v7H147V91M161 91h7v7H161V91M168 91h7v7H168V91M182 91h7v7H182V91M189 91h7v7H189V91M210 91h7v7H210V91M217 91h7v7H217V91M231 91h7v7H231V91M238 91h7v7H238V91M252 91h7v7H252V91M28 98h7v7H28V98M35 98h7v7H35V98M49 98h7v7H49V98M70 98h7v7H70V98M91 98h7v7H91V98M112 98h7v7H112V98M119 98h7v7H119V98M140 98h7v7H140V98M154 98h7v7H154V98M175 98h7v7H175V98M182 98h7v7H182V98M189 98h7v7H189V98M196 98h7v7H196V98M203 98h7v7H203V98M210 98h7v7H210V98M217 98h7v7H217V98M224 98h7v7H224V98M231 98h7v7H231V98M245 98h7v7H245V98M252 98h7v7H252V98M35 105h7v7H35V105M42 105h7v7H42V105M63 105h7v7H63V105M77 105h7v7H77V105M84 105h7v7H84V105M91 105h7v7H91V105M98 105h7v7H98V105M105 105h7v7H105V105M112 105h7v7H112V105M133 105h7v7H133V105M147 105h7v7H147V105M161 105h7v7H161V105M175 105h7v7H175V105M182 105h7v7H182V105M203 105h7v7H203V105M217 105h7v7H217V105M231 105h7v7H231V105M252 105h7v7H252V105M70 112h7v7H70V112M77 112h7v7H77V112M91 112h7v7H91V112M98 112h7v7H98V112M105 112h7v7H105V112M112 112h7v7H112V112M126 112h7v7H126V112M140 112h7v7H140V112M161 112h7v7H161V112M168 112h7v7H168V112M175 112h7v7H175V112M182 112h7v7H182V112M189 112h7v7H189V112M196 112h7v7H196V112M203 112h7v7H203V112M224 112h7v7H224V112M231 112h7v7H231V112M49 119h7v7H49V119M77 119h7v7H77V119M98 119h7v7H98V119M105 119h7v7H105V119M112 119h7v7H112V119M126 119h7v7H126V119M147 119h7v7H147V119M168 119h7v7H168V119M189 119h7v7H189V119M203 119h7v7H203V119M217 119h7v7H217V119M231 119h7v7H231V119M238 119h7v7H238V119M245 119h7v7H245V119M49 126h7v7H49V126M63 126h7v7H63V126M70 126h7v7H70V126M77 126h7v7H77V126M98 126h7v7H98V126M105 126h7v7H105V126M112 126h7v7H112V126M154 126h7v7H154V126M161 126h7v7H161V126M168 126h7v7H168V126M196 126h7v7H196V126M210 126h7v7H210V126M217 126h7v7H217V126M224 126h7v7H224V126M231 126h7v7H231V126M28 133h7v7H28V133M42 133h7v7H42V133M49 133h7v7H49V133M63 133h7v7H63V133M77 133h7v7H77V133M91 133h7v7H91V133M98 133h7v7H98V133M112 133h7v7H112V133M126 133h7v7H126V133M133 133h7v7H133V133M175 133h7v7H175V133M182 133h7v7H182V133M196 133h7v7H196V133M203 133h7v7H203V133M210 133h7v7H210V133M217 133h7v7H217V133M224 133h7v7H224V133M231 133h7v7H231V133M238 133h7v7H238V133M28 140h7v7H28V140M35 140h7v7H35V140M63 140h7v7H63V140M70 140h7v7H70V140M84 140h7v7H84V140M91 140h7v7H91V140M119 140h7v7H119V140M154 140h7v7H154V140M168 140h7v7H168V140M175 140h7v7H175V140M182 140h7v7H182V140M189 140h7v7H189V140M196 140h7v7H196V140M203 140h7v7H203V140M210 140h7v7H210V140M224 140h7v7H224V140M231 140h7v7H231V140M238 140h7v7H238V140M28 147h7v7H28V147M42 147h7v7H42V147M63 147h7v7H63V147M84 147h7v7H84V147M91 147h7v7H91V147M98 147h7v7H98V147M105 147h7v7H105V147M112 147h7v7H112V147M133 147h7v7H133V147M140 147h7v7H140V147M168 147h7v7H168V147M182 147h7v7H182V147M189 147h7v7H189V147M196 147h7v7H196V147M203 147h7v7H203V147M210 147h7v7H210V147M224 147h7v7H224V147M231 147h7v7H231V147M245 147h7v7H245V147M252 147h7v7H252V147M35 154h7v7H35V154M42 154h7v7H42V154M49 154h7v7H49V154M70 154h7v7H70V154M77 154h7v7H77V154M84 154h7v7H84V154M105 154h7v7H105V154M112 154h7v7H112V154M119 154h7v7H119V154M126 154h7v7H126V154M133 154h7v7H133V154M140 154h7v7H140V154M154 154h7v7H154V154M168 154h7v7H168V154M175 154h7v7H175V154M196 154h7v7H196V154M210 154h7v7H210V154M217 154h7v7H217V154M224 154h7v7H224V154M238 154h7v7H238V154M245 154h7v7H245V154M56 161h7v7H56V161M63 161h7v7H63V161M84 161h7v7H84V161M91 161h7v7H91V161M98 161h7v7H98V161M105 161h7v7H105V161M112 161h7v7H112V161M119 161h7v7H119V161M133 161h7v7H133V161M140 161h7v7H140V161M147 161h7v7H147V161M154 161h7v7H154V161M161 161h7v7H161V161M182 161h7v7H182V161M189 161h7v7H189V161M196 161h7v7H196V161M203 161h7v7H203V161M210 161h7v7H210V161M224 161h7v7H224V161M245 161h7v7H245V161M252 161h7v7H252V161M28 168h7v7H28V168M35 168h7v7H35V168M49 168h7v7H49V168M63 168h7v7H63V168M70 168h7v7H70V168M77 168h7v7H77V168M84 168h7v7H84V168M98 168h7v7H98V168M133 168h7v7H133V168M140 168h7v7H140V168M161 168h7v7H161V168M182 168h7v7H182V168M196 168h7v7H196V168M203 168h7v7H203V168M231 168h7v7H231V168M238 168h7v7H238V168M28 175h7v7H28V175M35 175h7v7H35V175M42 175h7v7H42V175M49 175h7v7H49V175M56 175h7v7H56V175M63 175h7v7H63V175M77 175h7v7H77V175M105 175h7v7H105V175M112 175h7v7H112V175M119 175h7v7H119V175M126 175h7v7H126V175M133 175h7v7H133V175M140 175h7v7H140V175M168 175h7v7H168V175M175 175h7v7H175V175M182 175h7v7H182V175M189 175h7v7H189V175M196 175h7v7H196V175M210 175h7v7H210V175M238 175h7v7H238V175M252 175h7v7H252V175M63 182h7v7H63V182M70 182h7v7H70V182M84 182h7v7H84V182M119 182h7v7H119V182M126 182h7v7H126V182M133 182h7v7H133V182M161 182h7v7H161V182M168 182h7v7H168V182M175 182h7v7H175V182M182 182h7v7H182V182M189 182h7v7H189V182M210 182h7v7H210V182M231 182h7v7H231V182M238 182h7v7H238V182M245 182h7v7H245V182M252 182h7v7H252V182M35 189h7v7H35V189M98 189h7v7H98V189M126 189h7v7H126V189M133 189h7v7H133V189M168 189h7v7H168V189M189 189h7v7H189V189M196 189h7v7H196V189M217 189h7v7H217V189M231 189h7v7H231V189M252 189h7v7H252V189M28 196h7v7H28V196M49 196h7v7H49V196M63 196h7v7H63V196M70 196h7v7H70V196M84 196h7v7H84V196M112 196h7v7H112V196M126 196h7v7H126V196M147 196h7v7H147V196M154 196h7v7H154V196M161 196h7v7H161V196M182 196h7v7H182V196M196 196h7v7H196V196M203 196h7v7H203V196M210 196h7v7H210V196M217 196h7v7H217V196M224 196h7v7H224V196M252 196h7v7H252V196M84 203h7v7H84V203M112 203h7v7H112V203M133 203h7v7H133V203M140 203h7v7H140V203M161 203h7v7H161V203M175 203h7v7H175V203M189 203h7v7H189V203M196 203h7v7H196V203M224 203h7v7H224V203M231 203h7v7H231V203M245 203h7v7H245V203M28 210h7v7H28V210M35 210h7v7H35V210M42 210h7v7H42V210M49 210h7v7H49V210M56 210h7v7H56V210M63 210h7v7H63V210M70 210h7v7H70V210M84 210h7v7H84V210M119 210h7v7H119V210M126 210h7v7H126V210M147 210h7v7H147V210M154 210h7v7H154V210M161 210h7v7H161V210M175 210h7v7H175V210M189 210h7v7H189V210M196 210h7v7H196V210M210 210h7v7H210V210M224 210h7v7H224V210M28 217h7v7H28V217M70 217h7v7H70V217M84 217h7v7H84V217M98 217h7v7H98V217M105 217h7v7H105V217M112 217h7v7H112V217M133 217h7v7H133V217M147 217h7v7H147V217M154 217h7v7H154V217M161 217h7v7H161V217M168 217h7v7H168V217M189 217h7v7H189V217M196 217h7v7H196V217M224 217h7v7H224V217M231 217h7v7H231V217M238 217h7v7H238V217M28 224h7v7H28V224M42 224h7v7H42V224M49 224h7v7H49V224M56 224h7v7H56V224M70 224h7v7H70V224M98 224h7v7H98V224M105 224h7v7H105V224M112 224h7v7H112V224M126 224h7v7H126V224M133 224h7v7H133V224M140 224h7v7H140V224M147 224h7v7H147V224M154 224h7v7H154V224M161 224h7v7H161V224M182 224h7v7H182V224M189 224h7v7H189V224M196 224h7v7H196V224M203 224h7v7H203V224M210 224h7v7H210V224M217 224h7v7H217V224M224 224h7v7H224V224M238 224h7v7H238V224M245 224h7v7H245V224M252 224h7v7H252V224M28 231h7v7H28V231M42 231h7v7H42V231M49 231h7v7H49V231M56 231h7v7H56V231M70 231h7v7H70V231M84 231h7v7H84V231M91 231h7v7H91V231M98 231h7v7H98V231M119 231h7v7H119V231M140 231h7v7H140V231M147 231h7v7H147V231M161 231h7v7H161V231M182 231h7v7H182V231M196 231h7v7H196V231M217 231h7v7H217V231M238 231h7v7H238V231M245 231h7v7H245V231M252 231h7v7H252V231M28 238h7v7H28V238M42 238h7v7H42V238M49 238h7v7H49V238M56 238h7v7H56V238M70 238h7v7H70V238M84 238h7v7H84V238M112 238h7v7H112V238M119 238h7v7H119V238M133 238h7v7H133V238M140 238h7v7H140V238M147 238h7v7H147V238M168 238h7v7H168V238M175 238h7v7H175V238M182 238h7v7H182V238M189 238h7v7H189V238M210 238h7v7H210V238M217 238h7v7H217V238M231 238h7v7H231V238M238 238h7v7H238V238M28 245h7v7H28V245M70 245h7v7H70V245M91 245h7v7H91V245M98 245h7v7H98V245M126 245h7v7H126V245M147 245h7v7H147V245M168 245h7v7H168V245M182 245h7v7H182V245M196 245h7v7H196V245M203 245h7v7H203V245M217 245h7v7H217V245M224 245h7v7H224V245M252 245h7v7H252V245M28 252h7v7H28V252M35 252h7v7H35V252M42 252h7v7H42V252M49 252h7v7H49V252M56 252h7v7H56V252M63 252h7v7H63V252M70 252h7v7H70V252M84 252h7v7H84V252M91 252h7v7H91V252M98 252h7v7H98V252M112 252h7v7H112V252M140 252h7v7H140V252M147 252h7v7H147V252M154 252h7v7H154V252M161 252h7v7H161V252M175 252h7v7H175V252M182 252h7v7H182V252M210 252h7v7H210V252M224 252h7v7H224V252M238 252h7v7H238V252"/></svg>